<?xml version="1.0" encoding="iso-8859-1"?>
<!-- Generator: Adobe Illustrator 16.2.1, SVG Export Plug-In . SVG Version: 6.00 Build 0)  -->
<!DOCTYPE svg PUBLIC "-//W3C//DTD SVG 1.1//EN" "http://www.w3.org/Graphics/SVG/1.1/DTD/svg11.dtd">
<svg version="1.1" xmlns="http://www.w3.org/2000/svg" xmlns:xlink="http://www.w3.org/1999/xlink" x="0px" y="0px"
	 width="609.643px" height="635.633px" viewBox="0 0 609.643 635.633" style="enable-background:new 0 0 609.643 635.633;"
	 xml:space="preserve">
<g id="man">
	<polygon id="pants" style="fill:#394FA2;" points="241.407,354.916 241.407,635.633 301.718,635.633 301.718,425.391 
		310.86,425.391 310.86,635.633 365.134,635.633 365.134,355.106 	"/>
	<g id="shoes">
		<polygon points="301.268,610.834 239.253,610.834 193.351,624.588 193.548,635.633 301.268,635.633 		"/>
		<polygon points="365.427,610.834 311.185,610.834 311.185,635.633 412.933,635.633 413.695,625.847 		"/>
	</g>
	<path id="arms" style="fill:#FBB465;" d="M582.819,146.944h-5.071l5.85-4.609l-1.068-5.271l-16.815,9.88h-13.021v0.177H304.087
		h-1.692H53.787v-0.177l-13.472-4.118l-16.364-5.762l-1.067,5.271l5.848,4.609h-5.071c0,0-9.061,3.509-17.584,5.55
		c-8.524,2.041-7.855,15.258,0.595,16.873s11.588,3.364,17.985,3.681h18.368v0.116h259.37h1.692h259.371v-0.116h18.366
		c0.214,0.066,19.274-1.587,23.688-4.054c4.414-2.467,6.256-13.728,0.597-16.872C600.449,148.979,582.819,146.944,582.819,146.944z"
		/>
	<path id="shirt" style="fill:#9B2020;" d="M365.698,139.357l-62.44,6.433v-0.191l-62.122-5.066l-75.254,5.066
		c0,0,0,43.048,0,49.538c38.433,9.335,75.524,0,75.524,0l-5.247,165.039l67.061-0.657v0.19l70.184,2.983l-2.58-166.072
		c0,0,36.484,7.378,69.771-1.291c0-5.561,0-49.539,0-49.539L365.698,139.357z"/>
	<path id="collar" style="fill:#701818;" d="M272.856,145.757c8.184,9.301,18.789,14.927,30.384,14.927
		c11.599,0,22.203-5.626,30.385-14.927H272.856z"/>
	<ellipse id="head" style="fill:#FBB465;" cx="303.241" cy="90.908" rx="46.877" ry="62.501"/>
	<g id="face">
		<path style="fill:none;stroke:#000000;stroke-width:2.7018;stroke-miterlimit:10;" d="M313.641,108.149c0,0-9.717,2.831-11.919,0
			c-2.549-3.277,0-20.948,0-20.948"/>
		<g>
			<path d="M284.789,124.812c0,0,0.643,0.193,1.762,0.477c0.565,0.127,1.239,0.303,2.024,0.46c0.779,0.175,1.666,0.327,2.625,0.505
				c0.961,0.171,2.012,0.302,3.111,0.468c1.109,0.118,2.27,0.267,3.479,0.347c0.604,0.042,1.215,0.111,1.837,0.134
				c0.623,0.012,1.252,0.028,1.885,0.059l0.953,0.04l0.96-0.013c0.641-0.004,1.285-0.008,1.929-0.012
				c1.288-0.022,2.572-0.139,3.842-0.176c1.266-0.12,2.513-0.237,3.719-0.351c1.198-0.181,2.361-0.348,3.471-0.493
				c0.559-0.059,1.09-0.173,1.605-0.276c0.52-0.095,1.021-0.187,1.503-0.275c0.961-0.195,1.867-0.298,2.64-0.505
				c0.777-0.188,1.467-0.327,2.035-0.448c1.137-0.237,1.804-0.345,1.804-0.345s-0.579,0.327-1.623,0.851
				c-0.522,0.26-1.157,0.583-1.899,0.925c-0.729,0.377-1.599,0.672-2.543,1.016c-0.949,0.324-1.961,0.767-3.085,1.026
				c-1.117,0.286-2.295,0.62-3.532,0.874c-1.246,0.195-2.532,0.444-3.852,0.611c-1.324,0.103-2.672,0.229-4.022,0.267
				c-1.352-0.033-2.706,0.046-4.033-0.102c-1.329-0.083-2.63-0.238-3.879-0.45c-1.257-0.152-2.445-0.475-3.573-0.729
				c-1.123-0.289-2.172-0.605-3.123-0.948c-0.955-0.329-1.812-0.677-2.556-1.022c-0.755-0.311-1.378-0.675-1.898-0.94
				C285.326,125.215,284.789,124.812,284.789,124.812z"/>
		</g>
		<circle style="fill:#FFFFFF;" cx="279.87" cy="74.991" r="1.423"/>
		<circle style="fill:#FFFFFF;" cx="328.103" cy="74.991" r="1.422"/>
		<circle cx="329.129" cy="77.314" r="5.008"/>
		<circle cx="281.041" cy="77.314" r="5.009"/>
	</g>
	<g id="hair">
		<path style="fill:#684729;" d="M354.49,0c-13.377,12.103-76.246,0.059-89.354,32.701s-13.642,56.792-9.63,63.027
			c0,0,8.561-62.352,33.174-55.383c11.94,3.38,29.533,6.309,43.645,2.462c4.079,7.497,18.918,35.754,17.794,48.101
			c2.994-20.063-1.882-39.025-7.367-52.793C351.926,31.807,357.371,20.175,354.49,0z"/>
		<g>
			<path style="fill:#3D2918;" d="M255.276,91.425c0,0,0.006-0.62,0.016-1.782c0.028-1.162,0.06-2.869,0.216-5.036
				c0.148-2.167,0.373-4.797,0.74-7.805c0.364-3.008,0.874-6.397,1.667-10.055c0.79-3.657,1.819-7.601,3.357-11.644
				c1.541-4.028,3.516-8.239,6.584-12c1.534-1.866,3.341-3.622,5.496-4.999c1.076-0.685,2.231-1.278,3.449-1.737
				c0.315-0.108,0.592-0.226,0.941-0.324l0.872-0.258c0.571-0.179,1.168-0.343,1.804-0.486c4.936-1.226,10.108-1.416,15.15-0.882
				c5.044,0.545,9.923,1.737,14.658,2.795c4.732,1.043,9.371,2.001,13.85,1.914c2.233-0.03,4.407-0.334,6.461-0.908
				c0.507-0.158,1.026-0.302,1.517-0.467c0.52-0.185,1.036-0.368,1.549-0.551c0.992-0.371,1.973-0.764,2.927-1.184
				c3.789-1.688,7.147-3.816,9.421-6.564c2.305-2.725,3.455-5.925,4.098-8.809c0.63-2.906,0.812-5.533,0.919-7.687
				c0.091-2.159,0.128-3.862,0.14-5.023c0.006-1.162,0.009-1.781,0.009-1.781s0.049,0.618,0.141,1.776
				c0.076,1.16,0.219,2.861,0.245,5.037c0.027,2.173,0.015,4.83-0.446,7.867c-0.46,3.008-1.472,6.516-3.874,9.603
				c-2.341,3.127-5.886,5.56-9.794,7.434c-0.979,0.47-1.988,0.914-3.028,1.341c-0.51,0.2-1.022,0.401-1.538,0.604
				c-0.55,0.207-1.098,0.376-1.652,0.567c-2.234,0.693-4.617,1.054-7.025,1.136c-4.832,0.165-9.704-0.707-14.476-1.755
				c-4.781-1.04-9.562-2.169-14.381-2.658c-4.797-0.541-9.671-0.374-14.219,0.725c-0.556,0.118-1.132,0.271-1.721,0.451
				l-0.874,0.253c-0.235,0.062-0.518,0.178-0.774,0.263c-1.047,0.38-2.054,0.865-3.004,1.446c-1.902,1.163-3.561,2.701-5.004,4.389
				c-2.873,3.411-4.918,7.366-6.535,11.219c-1.599,3.875-2.776,7.695-3.723,11.259c-1.838,7.147-2.846,13.261-3.397,17.551
				C255.468,88.952,255.276,91.425,255.276,91.425z"/>
		</g>
		<g>
			<path style="fill:#3D2918;" d="M264.081,43.381c0,0,0.104-0.396,0.382-1.111c0.282-0.712,0.725-1.756,1.461-2.997
				c0.731-1.241,1.725-2.702,3.09-4.197c1.359-1.497,3.066-3.061,5.177-4.423c2.098-1.376,4.567-2.591,7.315-3.465
				c2.742-0.886,5.744-1.479,8.87-1.704c3.125-0.243,6.37-0.174,9.617,0.21c3.252,0.36,6.518,0.969,9.721,1.783
				c1.576,0.408,3.152,0.815,4.722,1.222c0.792,0.223,1.553,0.354,2.321,0.516c0.769,0.146,1.523,0.342,2.302,0.435
				c3.086,0.529,6.154,0.769,9.081,0.599c2.919-0.186,5.704-0.776,8.081-1.924c2.353-1.18,4.28-2.846,5.657-4.726
				c1.354-1.898,2.234-3.914,2.807-5.767c0.558-1.861,0.839-3.557,0.993-4.96c0.3-2.815,0.155-4.456,0.155-4.456
				s0.084,0.399,0.18,1.161c0.091,0.76,0.213,1.884,0.202,3.324c-0.01,1.438-0.102,3.201-0.529,5.188
				c-0.425,1.979-1.164,4.206-2.523,6.38c-1.356,2.163-3.408,4.207-6.011,5.645c-2.607,1.422-5.672,2.238-8.829,2.507
				c-1.582,0.159-3.189,0.153-4.808,0.101c-0.807-0.053-1.618-0.107-2.435-0.161c-0.806-0.111-1.616-0.222-2.43-0.334
				c-0.815-0.091-1.625-0.289-2.442-0.437c-0.812-0.163-1.648-0.306-2.421-0.515c-1.574-0.392-3.154-0.786-4.734-1.179
				c-3.1-0.821-6.247-1.437-9.362-1.812c-3.114-0.38-6.2-0.593-9.17-0.431c-2.966,0.15-5.819,0.549-8.44,1.261
				c-2.618,0.715-5.011,1.694-7.084,2.857c-4.158,2.341-6.959,5.334-8.625,7.596C264.693,41.845,264.081,43.381,264.081,43.381z"/>
		</g>
		<g>
			<path style="fill:#3D2918;" d="M272.382,26.275c0,0,0.898-0.75,2.629-1.847c0.868-0.542,1.93-1.2,3.205-1.844
				c1.261-0.676,2.722-1.373,4.356-2.037c1.626-0.688,3.432-1.331,5.374-1.918c0.979-0.269,1.984-0.545,3.012-0.828
				c1.041-0.234,2.111-0.44,3.198-0.665c2.19-0.34,4.462-0.71,6.798-0.795c0.583-0.031,1.167-0.086,1.755-0.097l1.769,0.009
				c1.181,0.017,2.37-0.026,3.552,0.103c1.182,0.108,2.365,0.204,3.54,0.332c1.165,0.195,2.326,0.389,3.478,0.582
				c2.202,0.317,4.479,0.908,6.554,1.118c1.045,0.103,2.069,0.265,3.081,0.318c1.012,0.028,2.012,0.104,2.975,0.093
				c0.952-0.076,1.898-0.087,2.787-0.206c0.441-0.075,0.876-0.148,1.303-0.221c0.214-0.036,0.427-0.072,0.637-0.107
				c0.203-0.054,0.398-0.124,0.596-0.183c0.395-0.124,0.781-0.245,1.159-0.363c0.376-0.126,0.698-0.332,1.044-0.479
				c0.712-0.276,1.245-0.743,1.812-1.109c0.998-0.877,1.764-1.805,2.19-2.698c0.424-0.886,0.671-1.647,0.755-2.181
				c0.108-0.531,0.107-0.826,0.107-0.826s0.052,0.289,0.038,0.84c0.002,0.551-0.08,1.37-0.404,2.372
				c-0.313,1.008-0.971,2.146-1.986,3.254c-0.563,0.479-1.124,1.079-1.862,1.479c-0.358,0.215-0.716,0.475-1.114,0.655
				c-0.404,0.17-0.817,0.345-1.239,0.523c-0.213,0.086-0.426,0.184-0.646,0.264c-0.224,0.061-0.449,0.122-0.678,0.184
				c-0.458,0.123-0.925,0.248-1.399,0.375c-0.956,0.217-1.959,0.286-2.988,0.439c-1.027,0.082-2.081,0.076-3.164,0.117
				c-1.083,0.03-2.185-0.125-3.311-0.183c-1.146-0.05-2.22-0.245-3.332-0.4c-1.114-0.168-2.242-0.338-3.38-0.51
				c-1.105-0.169-2.22-0.341-3.339-0.513c-1.127-0.091-2.259-0.182-3.391-0.273c-1.129-0.141-2.267-0.112-3.397-0.145l-1.693-0.033
				c-0.563,0.002-1.123,0.049-1.682,0.07c-2.237,0.069-4.432,0.278-6.552,0.536c-1.055,0.168-2.09,0.347-3.111,0.49
				c-1.01,0.205-1.998,0.406-2.96,0.602c-1.909,0.459-3.718,0.911-5.36,1.427c-0.833,0.229-1.604,0.522-2.351,0.768
				c-0.751,0.238-1.451,0.498-2.105,0.753c-1.316,0.492-2.449,0.969-3.376,1.377C273.407,25.714,272.382,26.275,272.382,26.275z"/>
		</g>
	</g>
</g>
<g id="Layer_1">
</g>
</svg>
