<?xml version="1.0" encoding="utf-8"?>
<!-- Generator: Adobe Illustrator 16.2.1, SVG Export Plug-In . SVG Version: 6.00 Build 0)  -->
<!DOCTYPE svg PUBLIC "-//W3C//DTD SVG 1.1//EN" "http://www.w3.org/Graphics/SVG/1.1/DTD/svg11.dtd">
<svg version="1.1" id="Layer_1" xmlns="http://www.w3.org/2000/svg" xmlns:xlink="http://www.w3.org/1999/xlink" x="0px" y="0px"
	 width="34.607px" height="80.364px" viewBox="0 0 34.607 80.364" enable-background="new 0 0 34.607 80.364" xml:space="preserve">
<path fill="#B9B9B9" d="M27.914,32.355c0.085-0.007,0.169-0.014,0.254-0.021c0.104,0.243,0.23,0.479,0.307,0.731
	c0.197,0.651,0.399,1.305,0.553,1.968c1.17,5.033,0.875,10.146,0.814,15.247c-0.019,1.611,0.794,2.674,2.159,2.796
	c1.382,0.124,2.557-0.883,2.571-2.542c0.035-4.188,0.107-8.388-0.179-12.56c-0.243-3.544-1.061-7.027-3.066-10.086
	c-1.31-1.997-3.053-3.427-5.524-3.524c-2.815-0.11-5.658-0.259-8.452,0.003c-2.839,0.267-4.625-1.076-6-3.176
	c-0.858-1.311-1.561-2.792-2.001-4.295C8.259,13.168,8.688,9.415,9.576,5.693c0.47-1.967-0.132-3.221-1.677-3.552
	C6.367,1.814,5.321,2.588,4.915,4.519c-0.384,1.821-0.784,3.659-0.923,5.51c-0.513,6.804,1.089,12.863,6.642,17.342
	c0.744,0.6,0.953,1.177,0.951,2.055c-0.021,12.312-0.014,24.623-0.013,36.934c0,3.373-0.014,6.745,0.006,10.118
	c0.01,1.651,0.756,2.891,2.28,3.583c1.329,0.604,3.019,0.282,4.062-0.733c0.996-0.971,1.16-2.215,1.159-3.524
	c-0.007-8.343-0.005-16.685-0.001-25.026c0-0.395,0.049-0.789,0.079-1.24c0.459,0.02,0.81,0.035,1.261,0.056
	c0,0.653,0,1.242,0,1.831c0,7.979-0.002,15.957,0.006,23.936c0,0.683-0.01,1.379,0.117,2.044c0.294,1.535,1.253,2.46,2.78,2.837
	c1.494,0.369,2.637-0.116,3.651-1.227c1.233-1.35,0.925-2.987,0.928-4.541c0.026-13.039,0.015-26.079,0.015-39.118
	C27.914,34.354,27.914,33.354,27.914,32.355z"/>
<path fill="#B9B9B9" d="M19.816,9.029c-3.748-0.028-6.817,2.948-6.886,6.678c-0.068,3.695,2.975,6.795,6.717,6.841
	c3.666,0.046,6.854-3.049,6.89-6.687C26.574,12.146,23.535,9.057,19.816,9.029z"/>
<path fill="#B9B9B9" d="M12.649,3.814c1.043-2.019-0.214-3.994-2.396-3.802C11.965,0.727,12.927,1.888,12.649,3.814z"/>
<path fill="#B9B9B9" d="M1.947,7.652c-1.443,0.467-1.917,1.156-1.946,2.32c-0.03,1.194,0.399,1.92,1.793,2.389
	C0.135,10.686,0.336,9.223,1.947,7.652z"/>
<path fill="#B9B9B9" d="M11.351,3.654c0.085,0.051,0.17,0.102,0.255,0.152c-0.033-0.585,0.109-1.266-0.145-1.73
	c-0.28-0.512-0.923-0.825-1.408-1.226c-0.025,0.073-0.05,0.146-0.075,0.218C10.436,1.931,10.893,2.792,11.351,3.654z"/>
<path fill="#B9B9B9" d="M2.526,8.152C2.085,8.89,1.572,9.381,1.538,9.903c-0.039,0.599,0.348,1.226,0.55,1.84
	c0.06-0.038,0.119-0.077,0.178-0.115C2.342,10.604,2.419,9.58,2.526,8.152z"/>
<path fill-rule="evenodd" clip-rule="evenodd" fill="#B9B9B9" d="M27.914,32.355c0,0.999,0,1.998,0,2.997
	c0,13.039,0.011,26.079-0.015,39.118c-0.003,1.554,0.306,3.191-0.928,4.541c-1.014,1.11-2.157,1.596-3.651,1.227
	c-1.527-0.377-2.486-1.302-2.78-2.837c-0.127-0.665-0.117-1.361-0.117-2.044c-0.008-7.979-0.006-15.957-0.006-23.936
	c0-0.589,0-1.178,0-1.831c-0.451-0.021-0.802-0.036-1.261-0.056c-0.03,0.451-0.079,0.846-0.079,1.24
	c-0.004,8.342-0.006,16.684,0.001,25.026c0.001,1.31-0.163,2.554-1.159,3.524c-1.043,1.016-2.733,1.338-4.062,0.733
	c-1.524-0.692-2.27-1.932-2.28-3.583c-0.02-3.373-0.006-6.745-0.006-10.118c0-12.311-0.007-24.622,0.013-36.934
	c0.001-0.878-0.208-1.455-0.951-2.055c-5.553-4.479-7.154-10.538-6.642-17.342c0.139-1.851,0.539-3.688,0.923-5.51
	c0.406-1.931,1.452-2.704,2.984-2.377c1.545,0.331,2.146,1.585,1.677,3.552c-0.888,3.722-1.317,7.475-0.225,11.204
	c0.44,1.503,1.143,2.984,2.001,4.295c1.374,2.1,3.161,3.442,6,3.176c2.794-0.262,5.636-0.113,8.452-0.003
	c2.471,0.098,4.214,1.527,5.524,3.524c2.006,3.059,2.824,6.542,3.066,10.086c0.286,4.172,0.213,8.372,0.179,12.56
	c-0.014,1.659-1.188,2.666-2.571,2.542c-1.365-0.122-2.178-1.185-2.159-2.796c0.06-5.101,0.355-10.214-0.814-15.247
	c-0.154-0.663-0.356-1.316-0.553-1.968c-0.077-0.252-0.203-0.488-0.307-0.731C28.083,32.342,27.999,32.349,27.914,32.355z"/>
<path fill-rule="evenodd" clip-rule="evenodd" fill="#B9B9B9" d="M19.816,9.029c3.719,0.027,6.757,3.116,6.72,6.832
	c-0.036,3.638-3.224,6.732-6.89,6.687c-3.742-0.046-6.785-3.146-6.717-6.841C12.999,11.978,16.068,9.001,19.816,9.029z"/>
<path fill-rule="evenodd" clip-rule="evenodd" fill="#B9B9B9" d="M12.649,3.814c0.278-1.927-0.684-3.088-2.396-3.802
	C12.435-0.18,13.692,1.796,12.649,3.814z"/>
<path fill-rule="evenodd" clip-rule="evenodd" fill="#B9B9B9" d="M1.947,7.652c-1.611,1.57-1.812,3.033-0.153,4.709
	C0.4,11.893-0.029,11.167,0.001,9.973C0.031,8.809,0.504,8.119,1.947,7.652z"/>
<path fill-rule="evenodd" clip-rule="evenodd" fill="#B9B9B9" d="M11.351,3.654c-0.458-0.862-0.916-1.724-1.373-2.586
	c0.025-0.072,0.05-0.145,0.075-0.218c0.485,0.4,1.128,0.714,1.408,1.226c0.254,0.465,0.112,1.146,0.145,1.73
	C11.521,3.756,11.436,3.705,11.351,3.654z"/>
<path fill-rule="evenodd" clip-rule="evenodd" fill="#B9B9B9" d="M2.526,8.152c-0.107,1.428-0.184,2.451-0.26,3.476
	c-0.06,0.038-0.119,0.077-0.178,0.115c-0.202-0.614-0.588-1.241-0.55-1.84C1.572,9.381,2.085,8.89,2.526,8.152z"/>
</svg>
