<?xml version="1.0" encoding="iso-8859-1"?>
<!-- Generator: Adobe Illustrator 16.2.1, SVG Export Plug-In . SVG Version: 6.00 Build 0)  -->
<!DOCTYPE svg PUBLIC "-//W3C//DTD SVG 1.1//EN" "http://www.w3.org/Graphics/SVG/1.1/DTD/svg11.dtd">
<svg version="1.1" xmlns="http://www.w3.org/2000/svg" xmlns:xlink="http://www.w3.org/1999/xlink" x="0px" y="0px"
	 width="21.506px" height="21.346px" viewBox="0 0 21.506 21.346" style="enable-background:new 0 0 21.506 21.346;"
	 xml:space="preserve">
<g id="face">
	<circle cx="1.854" cy="1.854" r="1.854"/>
	<circle cx="19.652" cy="1.854" r="1.854"/>
	<path style="fill:none;stroke:#000000;stroke-miterlimit:10;" d="M13.92,13.267c0,0-3.597,1.048-4.412,0
		c-0.943-1.213,0-7.753,0-7.753"/>
	<g>
		<path d="M3.241,19.434c0,0,0.944,0.3,2.373,0.534c0.714,0.116,1.544,0.239,2.439,0.302c0.445,0.049,0.909,0.052,1.377,0.073
			c0.468,0.037,0.946,0,1.422,0.004c0.477-0.006,0.953-0.044,1.422-0.062c0.469-0.045,0.93-0.09,1.376-0.132
			c0.445-0.063,0.876-0.125,1.285-0.183c0.411-0.051,0.791-0.148,1.15-0.204c0.354-0.073,0.691-0.108,0.979-0.183
			c0.29-0.064,0.543-0.121,0.752-0.168c0.42-0.091,0.667-0.13,0.667-0.13s-0.214,0.122-0.602,0.312
			c-0.392,0.178-0.936,0.491-1.644,0.721c-0.352,0.12-0.726,0.284-1.142,0.38c-0.414,0.105-0.85,0.229-1.308,0.323
			c-0.461,0.071-0.937,0.167-1.426,0.224c-0.49,0.032-0.988,0.085-1.488,0.101c-0.5-0.015-1.001,0.01-1.493-0.039
			c-0.492-0.027-0.973-0.088-1.436-0.165c-0.927-0.139-1.773-0.374-2.478-0.621c-0.709-0.238-1.262-0.536-1.648-0.729
			C3.44,19.583,3.241,19.434,3.241,19.434z"/>
	</g>
	<circle style="fill:#FFFFFF;" cx="1.421" cy="0.994" r="0.527"/>
	<circle style="fill:#FFFFFF;" cx="19.272" cy="0.994" r="0.526"/>
</g>
<g id="Layer_1">
</g>
</svg>
