<?xml version="1.0" encoding="iso-8859-1"?>
<!-- Generator: Adobe Illustrator 16.2.1, SVG Export Plug-In . SVG Version: 6.00 Build 0)  -->
<!DOCTYPE svg PUBLIC "-//W3C//DTD SVG 1.1//EN" "http://www.w3.org/Graphics/SVG/1.1/DTD/svg11.dtd">
<svg version="1.1" xmlns="http://www.w3.org/2000/svg" xmlns:xlink="http://www.w3.org/1999/xlink" x="0px" y="0px"
	 width="225.643px" height="13.361px" viewBox="0 0 225.643 13.361" style="enable-background:new 0 0 225.643 13.361;"
	 xml:space="preserve">
<g id="arms">
	<path style="fill:#FBB465;" d="M215.714,3.657h-1.877l2.165-1.706L215.606,0l-6.224,3.657h-4.819v0.065h-92.014h-0.626H19.908
		V3.657l-4.986-1.524L8.865,0L8.47,1.951l2.165,1.706H8.757c0,0-3.354,1.299-6.508,2.054s-2.907,5.647,0.22,6.245
		s4.289,1.245,6.657,1.362h6.798v0.043h95.999h0.626h95.999v-0.043h6.798c0.079,0.024,7.134-0.588,8.768-1.5
		c1.634-0.914,2.315-5.082,0.221-6.245S215.714,3.657,215.714,3.657z"/>
</g>
<g id="Layer_1">
</g>
</svg>
