<?xml version="1.0" encoding="iso-8859-1"?>
<!-- Generator: Adobe Illustrator 16.2.1, SVG Export Plug-In . SVG Version: 6.00 Build 0)  -->
<!DOCTYPE svg PUBLIC "-//W3C//DTD SVG 1.1//EN" "http://www.w3.org/Graphics/SVG/1.1/DTD/svg11.dtd">
<svg version="1.1" xmlns="http://www.w3.org/2000/svg" xmlns:xlink="http://www.w3.org/1999/xlink" x="0px" y="0px"
	 width="37.736px" height="35.432px" viewBox="0 0 37.736 35.432" style="enable-background:new 0 0 37.736 35.432;"
	 xml:space="preserve">
<g id="hair">
	<path style="fill:#684729;" d="M37.45,0C32.499,4.48,9.23,0.022,4.379,12.104s-5.049,21.02-3.564,23.328
		c0,0,3.168-23.078,12.278-20.499c4.419,1.251,10.931,2.335,16.153,0.911c1.51,2.775,7.002,13.234,6.586,17.803
		c1.108-7.426-0.696-14.444-2.727-19.54C36.501,11.773,38.517,7.468,37.45,0z"/>
	<g>
		<path style="fill:#3D2918;" d="M0.729,33.839c0,0-0.018-0.919,0.086-2.523c0.123-1.601,0.305-3.9,0.896-6.608
			c0.298-1.352,0.688-2.808,1.245-4.308c0.572-1.488,1.287-3.058,2.439-4.436c0.571-0.686,1.231-1.341,2.033-1.844
			c0.797-0.513,1.734-0.824,2.61-1.038c1.823-0.458,3.736-0.534,5.603-0.342c3.73,0.404,7.214,1.816,10.551,1.75
			c1.663,0.005,3.177-0.543,4.611-1.16c1.395-0.617,2.661-1.395,3.484-2.428c0.839-1.018,1.282-2.191,1.516-3.261
			c0.228-1.076,0.3-2.047,0.341-2.845c0.067-1.599,0.057-2.518,0.057-2.518s0.018,0.229,0.049,0.658
			c0.034,0.429,0.078,1.059,0.092,1.864c0.009,0.805-0.001,1.787-0.166,2.912c-0.163,1.116-0.559,2.405-1.442,3.547
			c-0.861,1.163-2.179,2.04-3.625,2.747c-0.366,0.182-0.738,0.353-1.111,0.497c-0.36,0.152-0.764,0.313-1.181,0.445
			c-0.827,0.258-1.71,0.385-2.6,0.414c-1.788,0.058-3.586-0.281-5.354-0.658c-1.77-0.379-3.542-0.792-5.325-0.968
			c-1.775-0.205-3.58-0.149-5.266,0.253c-0.875,0.206-1.66,0.46-2.363,0.896c-0.708,0.431-1.312,1.014-1.845,1.638
			C5,17.782,4.248,19.25,3.638,20.67c-0.595,1.434-1.032,2.848-1.376,4.168c-0.667,2.648-1.049,4.909-1.251,6.497
			C0.801,32.924,0.729,33.839,0.729,33.839z"/>
	</g>
	<g>
		<path style="fill:#3D2918;" d="M3.988,16.057c0,0,0.042-0.144,0.142-0.411c0.107-0.262,0.27-0.648,0.544-1.106
			c0.278-0.453,0.642-0.996,1.149-1.546c0.253-0.275,0.522-0.572,0.853-0.835c0.161-0.136,0.327-0.276,0.497-0.418
			c0.185-0.122,0.375-0.247,0.568-0.374c0.378-0.273,0.81-0.489,1.263-0.705c0.44-0.247,0.937-0.396,1.439-0.574
			c0.498-0.204,1.039-0.285,1.584-0.412c0.544-0.15,1.115-0.167,1.692-0.221c0.289-0.021,0.581-0.058,0.874-0.065
			c0.293,0.007,0.588,0.014,0.886,0.021c0.594,0.017,1.2,0.008,1.796,0.116c0.599,0.083,1.202,0.167,1.808,0.251l1.788,0.408
			c1.145,0.262,2.344,0.575,3.483,0.786c0.566,0.069,1.128,0.138,1.683,0.206c0.558,0.041,1.111,0.002,1.656,0.009
			c0.547,0.004,1.052-0.164,1.57-0.218c0.505-0.104,0.96-0.322,1.427-0.475c0.84-0.479,1.611-1.032,2.079-1.767
			c0.527-0.687,0.813-1.451,1.056-2.125c0.197-0.692,0.312-1.316,0.364-1.836c0.106-1.042,0.057-1.648,0.057-1.648
			s0.139,0.593,0.138,1.659c-0.004,0.533-0.061,1.179-0.197,1.918c-0.182,0.723-0.409,1.568-0.951,2.349
			c-0.471,0.831-1.285,1.509-2.208,2.097c-0.5,0.205-1.008,0.475-1.556,0.622c-0.555,0.104-1.126,0.282-1.709,0.303
			c-0.584,0.013-1.181,0.069-1.781,0.043c-0.6-0.062-1.207-0.125-1.819-0.189c-1.19-0.21-2.33-0.497-3.534-0.762L18.9,10.742
			c-0.582-0.086-1.161-0.173-1.736-0.258c-0.574-0.106-1.148-0.111-1.715-0.146c-0.284-0.016-0.565-0.031-0.845-0.046
			c-0.279-0.002-0.555,0.027-0.83,0.038c-0.548,0.033-1.092,0.042-1.608,0.149c-0.519,0.091-1.041,0.136-1.515,0.303
			c-0.481,0.142-0.962,0.254-1.387,0.464c-0.438,0.179-0.861,0.359-1.231,0.598c-0.191,0.11-0.377,0.218-0.56,0.323
			c-0.17,0.125-0.336,0.246-0.499,0.365c-0.339,0.221-0.62,0.48-0.888,0.722c-0.537,0.482-0.938,0.975-1.251,1.392
			C4.216,15.489,3.988,16.057,3.988,16.057z"/>
	</g>
	<g>
		<path style="fill:#3D2918;" d="M7.061,9.726c0,0,0.332-0.279,0.974-0.682c0.646-0.391,1.585-0.948,2.799-1.433
			c0.604-0.25,1.273-0.481,1.989-0.707c0.362-0.102,0.733-0.206,1.113-0.313c0.387-0.081,0.782-0.164,1.184-0.248
			c0.811-0.126,1.651-0.263,2.516-0.294c0.431-0.038,0.866-0.04,1.304-0.032c0.438,0.006,0.877-0.009,1.314,0.038l1.311,0.123
			c0.432,0.072,0.861,0.144,1.287,0.215c0.815,0.117,1.657,0.336,2.426,0.414c0.771,0.102,1.524,0.154,2.242,0.161
			c0.711-0.023,1.385-0.09,1.971-0.269c0.595-0.161,1.085-0.432,1.488-0.723c0.374-0.322,0.653-0.67,0.809-1.002
			c0.322-0.661,0.317-1.113,0.317-1.113s0.02,0.107,0.015,0.311c0,0.204-0.028,0.508-0.152,0.877
			C31.849,5.42,31.602,5.836,31.23,6.25c-0.394,0.383-0.916,0.763-1.559,0.982C29.039,7.48,28.32,7.61,27.56,7.696
			c-0.759,0.054-1.564,0.073-2.396-0.016c-0.837-0.062-1.625-0.212-2.484-0.336c-0.409-0.063-0.821-0.126-1.235-0.19l-1.255-0.101
			C19.771,7,19.35,7.011,18.931,6.999c-0.419-0.013-0.836-0.017-1.249,0.014c-0.828,0.025-1.64,0.103-2.425,0.198
			c-0.781,0.12-1.538,0.238-2.249,0.396c-0.709,0.163-1.377,0.335-1.984,0.532C10.418,8.334,9.86,8.517,9.375,8.702
			c-0.49,0.177-0.907,0.359-1.249,0.513C7.441,9.52,7.061,9.726,7.061,9.726z"/>
	</g>
</g>
<g id="Layer_1">
</g>
</svg>
